<svg xmlns="http://www.w3.org/2000/svg" viewBox="-64 155.635 702.9999993896485 263.729736328125"><g transform="rotate(0 66.29406789213624 287.4998681640625)"><svg xmlns="http://www.w3.org/2000/svg" xmlns:xlink="http://www.w3.org/1999/xlink" id="Livello_1" x="6" y="225.635" viewBox="276.3999938964844 279.5 429.8999938964844 441.0999755859375" xml:space="preserve" height="123.729736328125" width="120.58813578427247" preserveAspectRatio="xMinYMin" style="overflow: visible;"><linearGradient id="SVGID_1_" gradientUnits="userSpaceOnUse" x1="326.0037" y1="767.7612" x2="590.84" y2="243.1817" style=""><stop offset="0.1156" style="stop-color: #F15A24;"></stop><stop offset="1" style="stop-color: #ED1E79;"></stop></linearGradient><path class="st0" d="M689.3,412.1c-11.4-26.7-27.4-49.9-48.2-69.6c-20.8-19.7-45.6-35.2-74.4-46.3c-28.8-11.1-60.4-16.7-94.8-16.7   h-172v0c0,48.4,39.2,87.6,87.6,87.6h84.4c19.7,0,37.8,3.3,54.2,9.8c16.4,6.5,30.3,15.7,41.9,27.4c11.5,11.8,20.6,25.8,27.1,42.2   c6.5,16.4,9.8,34.2,9.8,53.6v1.3c0,19.7-3.3,37.6-9.8,53.5c-6.5,16-15.6,29.8-27.1,41.6c-11.6,11.8-25.5,20.8-41.9,27.1   c-16.4,6.3-34.5,9.4-54.2,9.4h-84.4c-48.4,0-87.6,39.2-87.6,87.6h172c34.4,0,66-5.7,94.8-17c28.8-11.3,53.5-26.9,74.4-46.6   c20.8-19.7,36.8-43.1,48.2-69.9c11.3-26.9,17-55.9,17-86.9v-1.3C706.3,467.7,700.6,438.8,689.3,412.1z" style="fill: url(#SVGID_1_);"></path><linearGradient id="SVGID_2_" gradientUnits="userSpaceOnUse" x1="235.0299" y1="721.8327" x2="499.8662" y2="197.2532" style=""><stop offset="0.1156" style="stop-color: #F15A24;"></stop><stop offset="1" style="stop-color: #ED1E79;"></stop></linearGradient><circle class="st1" cx="347" cy="500" r="70.6" style="fill: url(#SVGID_2_);"></circle></svg></g><g transform="rotate(0 481.05499969482423 287.49999816894535)"><svg x="393.11" y="226.955" viewBox="20.579999923706055 145.5 175.88999938964844 121.08999633789062" height="121.08999633789062" width="175.88999938964844" style="overflow: visible;"><g fill="#000" style=""><path d="M161.53 185.94L161.53 185.94Q157.70 186.18 152.20 190.85Q146.70 195.51 140.35 202.81Q134.01 210.11 127.19 218.97Q120.37 227.82 114.03 236.56Q107.69 245.29 102.18 252.95Q96.68 260.61 92.85 265.15L92.85 265.15Q87.59 263.00 83.76 258.81Q79.93 254.62 78.25 248.40L78.25 248.40Q79.45 240.98 81.60 232.97Q83.76 224.95 87.23 216.33Q90.70 207.72 95.84 198.27Q100.99 188.81 108.41 178.28L108.41 178.28Q104.82 178.52 98.59 183.43Q92.37 188.34 85.19 196.11Q78.01 203.89 70.36 213.58Q62.70 223.27 56.00 232.61L56.00 232.61Q47.14 245.05 41.28 254.38Q35.42 263.72 32.79 265.39L32.79 265.39Q26.56 260.85 24.17 255.58Q21.78 250.32 20.58 243.85L20.58 243.85Q20.82 238.11 22.38 229.50Q23.93 220.88 26.80 211.79L26.80 211.79Q32.31 194.32 41.04 177.09Q49.78 159.86 57.91 145.50L57.91 145.50Q64.61 146.93 70.00 150.05Q75.38 153.16 81.36 159.14L81.36 159.14Q78.97 166.56 73.95 174.81Q68.92 183.07 63.42 192.16Q57.91 201.26 53.37 210.83Q48.82 220.40 47.38 230.21L47.38 230.21Q54.08 220.64 63.30 208.20Q72.51 195.75 82.20 184.75Q91.89 173.74 101.47 166.08Q111.04 158.42 118.70 158.42L118.70 158.42Q121.57 158.42 124.92 159.38Q128.27 160.34 131.14 161.77Q134.01 163.21 135.93 164.52Q137.84 165.84 138.08 166.56L138.08 166.56Q136.88 171.34 132.46 179.60Q128.03 187.86 123.00 196.95Q117.98 206.04 113.67 214.54Q109.36 223.03 108.65 228.06L108.65 228.06Q120.37 212.03 130.66 198.98Q140.95 185.94 150.05 176.61Q159.14 167.28 166.92 162.25Q174.69 157.23 181.63 157.23L181.63 157.23Q186.42 157.23 190.61 159.74Q194.80 162.25 196.47 167.04L196.47 167.04Q194.32 174.22 189.41 184.27Q184.51 194.32 179.48 205.45Q174.46 216.57 170.51 227.34Q166.56 238.11 166.56 246.73L166.56 246.73Q166.56 251.75 167.99 253.31Q169.43 254.86 172.06 254.86L172.06 254.86Q174.93 254.86 177.45 253.79Q179.96 252.71 181.16 252.71L181.16 252.71Q182.59 253.67 182.83 255.10Q183.07 256.54 183.07 257.73L183.07 257.73Q178.28 261.56 173.26 264.08Q168.23 266.59 162.01 266.59L162.01 266.59Q156.27 266.59 152.56 264.67Q148.85 262.76 146.46 259.41Q144.06 256.06 143.11 251.75Q142.15 247.44 142.15 242.42L142.15 242.42Q142.15 234.28 144.30 226.27Q146.46 218.25 149.45 210.95Q152.44 203.65 155.79 197.31Q159.14 190.97 161.53 185.94Z" transform="translate(0, 0)"></path></g></svg></g><g transform="rotate(0 256.33799999999997 289.9100007629395)"><svg x="136.588" y="241.71" viewBox="5.5 15.600000381469727 239.5 96.4000015258789" height="96.4000015258789" width="239.5" style="overflow: visible;"><g fill="#EE355E" fill-opacity="1" style=""><path d="M21.90 40.60L21.90 93.20L7 93.20L7 40.60L21.90 40.60ZM23.30 25.40L23.30 25.40Q23.30 29.50 20.65 31.85Q18 34.20 14.40 34.20L14.40 34.20Q10.80 34.20 8.15 31.85Q5.50 29.50 5.50 25.40L5.50 25.40Q5.50 21.30 8.15 18.95Q10.80 16.60 14.40 16.60L14.40 16.60Q18 16.60 20.65 18.95Q23.30 21.30 23.30 25.40ZM48.60 65.20L48.60 65.20Q48.60 77.70 58.70 77.70L58.70 77.70Q61 77.70 63 77.10Q65 76.50 66.40 75.70L66.40 75.70L66.40 51.90Q65.30 51.70 63.80 51.55Q62.30 51.40 60.30 51.40L60.30 51.40Q54.40 51.40 51.50 55.30Q48.60 59.20 48.60 65.20ZM81.30 42.40L81.30 86.60Q81.30 99.50 74.75 105.75Q68.20 112 54.50 112L54.50 112Q49.70 112 44.90 111.15Q40.10 110.30 36 108.90L36 108.90L38.60 96.40Q42.10 97.80 45.95 98.60Q49.80 99.40 54.70 99.40L54.70 99.40Q61.10 99.40 63.75 96.60Q66.40 93.80 66.40 89.40L66.40 89.40L66.40 87.50Q64 88.60 61.45 89.15Q58.90 89.70 55.90 89.70L55.90 89.70Q45 89.70 39.20 83.25Q33.40 76.80 33.40 65.20L33.40 65.20Q33.40 59.40 35.20 54.65Q37 49.90 40.45 46.50Q43.90 43.10 48.90 41.25Q53.90 39.40 60.20 39.40L60.20 39.40Q62.90 39.40 65.75 39.65Q68.60 39.90 71.40 40.30Q74.20 40.70 76.75 41.25Q79.30 41.80 81.30 42.40L81.30 42.40ZM110.20 40.60L110.20 93.20L95.30 93.20L95.30 40.60L110.20 40.60ZM111.60 25.40L111.60 25.40Q111.60 29.50 108.95 31.85Q106.30 34.20 102.70 34.20L102.70 34.20Q99.10 34.20 96.45 31.85Q93.80 29.50 93.80 25.40L93.80 25.40Q93.80 21.30 96.45 18.95Q99.10 16.60 102.70 16.60L102.70 16.60Q106.30 16.60 108.95 18.95Q111.60 21.30 111.60 25.40ZM123.70 71.70L123.70 27.50L138.60 25.10L138.60 40.60L156.50 40.60L156.50 53L138.60 53L138.60 71.50Q138.60 76.20 140.25 79Q141.90 81.80 146.90 81.80L146.90 81.80Q149.30 81.80 151.85 81.35Q154.40 80.90 156.50 80.10L156.50 80.10L158.60 91.70Q155.90 92.80 152.60 93.60Q149.30 94.40 144.50 94.40L144.50 94.40Q138.40 94.40 134.40 92.75Q130.40 91.10 128.00 88.15Q125.60 85.20 124.65 81Q123.70 76.80 123.70 71.70L123.70 71.70ZM186.70 82.80L186.70 82.80Q188.90 82.80 190.90 82.70Q192.90 82.60 194.10 82.40L194.10 82.40L194.10 71.10Q193.20 70.90 191.40 70.70Q189.60 70.50 188.10 70.50L188.10 70.50Q186.00 70.50 184.15 70.75Q182.30 71 180.90 71.70Q179.50 72.40 178.70 73.60Q177.90 74.80 177.90 76.60L177.90 76.60Q177.90 80.10 180.25 81.45Q182.60 82.80 186.70 82.80ZM185.50 39.20L185.50 39.20Q192.10 39.20 196.50 40.70Q200.90 42.20 203.55 45Q206.20 47.80 207.30 51.80Q208.40 55.80 208.40 60.70L208.40 60.70L208.40 91.70Q205.20 92.40 199.50 93.35Q193.80 94.30 185.70 94.30L185.70 94.30Q180.60 94.30 176.45 93.40Q172.30 92.50 169.30 90.45Q166.30 88.40 164.70 85.10Q163.10 81.80 163.10 77L163.10 77Q163.10 72.40 164.95 69.20Q166.80 66 169.90 64.10Q173.00 62.20 177.00 61.35Q181.00 60.50 185.30 60.50L185.30 60.50Q188.20 60.50 190.45 60.75Q192.70 61 194.10 61.40L194.10 61.40L194.10 60Q194.10 56.20 191.80 53.90Q189.50 51.60 183.80 51.60L183.80 51.60Q180.00 51.60 176.30 52.15Q172.60 52.70 169.90 53.70L169.90 53.70L168.00 41.70Q169.30 41.30 171.25 40.85Q173.20 40.40 175.50 40.05Q177.80 39.70 180.35 39.45Q182.90 39.20 185.50 39.20ZM245.00 81.90L242.90 94.20Q236.40 94.10 232.35 92.80Q228.30 91.50 225.95 89.15Q223.60 86.80 222.75 83.45Q221.90 80.10 221.90 75.90L221.90 75.90L221.90 18L236.80 15.60L236.80 72.90Q236.80 74.90 237.10 76.50Q237.40 78.10 238.25 79.20Q239.10 80.30 240.70 81Q242.30 81.70 245.00 81.90L245.00 81.90Z" transform="translate(0, 0)"></path></g></svg></g></svg>