<svg xmlns="http://www.w3.org/2000/svg"><filter id="grayscale"></filter><g filter="url(#grayscale)"><svg xmlns="http://www.w3.org/2000/svg" viewBox="96.30731329204298 50.00000000000003 382.3853734159143 474.99642637990314"><g transform="rotate(0 287.5000000000001 264.54094044360534)"><svg xmlns="http://www.w3.org/2000/svg" xmlns:xlink="http://www.w3.org/1999/xlink" id="Layer_1" x="166.30731329204298" y="120.00000000000003" viewBox="0 0 109.00001525878906 130" xml:space="preserve" height="289.0818808872106" width="242.38537341591427" preserveAspectRatio="xMinYMin" style="overflow: visible;"><linearGradient id="SVGID_1_" gradientUnits="userSpaceOnUse" x1="-7.7089" y1="26.8028" x2="56.2911" y2="111.1361" style=""><stop offset="0" style="stop-color: #C3B07E;"></stop><stop offset="0.4844" style="stop-color: #F2D794;"></stop><stop offset="1" style="stop-color: #C4A86F;"></stop></linearGradient><path class="st0" d="M33.4,103.5c-5.4,1.7-11.4,2.6-18,2.6h-12c-1.3,0-2.4-1.1-2.4-2.4L0,45.6V26.5c0-1.3,1.1-2.4,2.4-2.4h18.8  c3,0,6.6,0.6,10.9,1.7c4.3,1.1,8.5,3.2,12.7,6.2c4.2,3,7.7,7.2,10.4,12.7c2.8,5.4,4.2,12.4,4.2,21.1c0,6.6-1.1,12.4-3.1,17.5  c-2,5-5.1,9.3-9,12.7C43.5,99.2,38.8,101.8,33.4,103.5z" style="fill: #ffffff; fill-opacity: 1;"></path><linearGradient id="SVGID_2_" gradientUnits="userSpaceOnUse" x1="29.5228" y1="4.1769" x2="91.1895" y2="84.1769" style=""><stop offset="0" style="stop-color: #C3B07E;"></stop><stop offset="0.4844" style="stop-color: #F2D794;"></stop><stop offset="1" style="stop-color: #C4A86F;"></stop></linearGradient><path class="st1" d="M47.4,0c-2.6,0-3.4,3.6-0.8,4.5c0.4,0.1,0.6,0.2,1,0.4c9.3,4,16.9,9.2,22.5,15.8c5.7,6.6,9.8,13.9,12.4,22  s4,16.3,4,24.7c0,9.8-1.8,18.7-5.3,26.5c-3.5,7.8-8.4,14.5-14.5,20.1c-6.1,5.6-13.2,9.8-21.2,12.8h-0.1c-1.8,0.6-1.3,3.2,0.6,3.2  h60.6c1.3,0,2.4-1.1,2.4-2.4V2.4c0-1.3-1.1-2.4-2.4-2.4H47.4z" style="fill: #ffffff; fill-opacity: 1;"></path></svg></g><g transform="rotate(0 287.5000000000001 447.26642636082966)"><svg y="439.53642634175617" viewBox="1.9700000286102295 -0.1599999964237213 242.3800048828125 15.460000038146973" x="166.30999755859386" height="15.460000038146973" width="242.3800048828125" style="overflow: visible;"><g fill="#ffffff" fill-opacity="1" style=""><path d="M6.74 14.79L1.97 14.79L1.97 0.43L6.05 0.43Q8.18 0.43 9.69 1.08Q11.20 1.74 12.13 2.80Q13.06 3.87 13.48 5.18Q13.90 6.49 13.90 7.81L13.90 7.81Q13.90 9.43 13.33 10.71Q12.76 11.99 11.76 12.91Q10.77 13.82 9.48 14.31Q8.18 14.79 6.74 14.79L6.74 14.79ZM4.28 2.62L4.28 12.58L6.33 12.58Q7.47 12.58 8.42 12.26Q9.37 11.93 10.07 11.31Q10.77 10.69 11.15 9.76Q11.54 8.84 11.54 7.65L11.54 7.65Q11.54 6.31 11.09 5.35Q10.65 4.40 9.93 3.80Q9.21 3.19 8.36 2.91Q7.51 2.62 6.69 2.62L6.69 2.62L4.28 2.62ZM17.58 14.79L17.58 0.43L19.88 0.43L19.88 14.79L17.58 14.79ZM35.86 7.57L35.86 13.47Q35.59 13.75 35.04 14.00Q34.50 14.26 33.83 14.48Q33.16 14.69 32.45 14.82Q31.74 14.95 31.11 14.95L31.11 14.95Q29.37 14.95 27.98 14.42Q26.59 13.88 25.61 12.95Q24.62 12.01 24.09 10.73Q23.56 9.45 23.56 7.95L23.56 7.95Q23.56 6.07 24.15 4.64Q24.74 3.21 25.77 2.24Q26.79 1.26 28.12 0.77Q29.45 0.28 30.93 0.28L30.93 0.28Q32.23 0.28 33.35 0.57Q34.46 0.87 35.25 1.32L35.25 1.32L34.50 3.45Q34.13 3.23 33.54 3.03Q32.94 2.82 32.33 2.70Q31.72 2.58 31.23 2.58L31.23 2.58Q29.99 2.58 29.01 2.93Q28.03 3.27 27.34 3.94Q26.65 4.61 26.29 5.57Q25.92 6.53 25.92 7.75L25.92 7.75Q25.92 8.85 26.31 9.76Q26.69 10.67 27.38 11.32Q28.07 11.97 29.04 12.32Q30.01 12.66 31.17 12.66L31.17 12.66Q31.84 12.66 32.47 12.54Q33.10 12.42 33.56 12.17L33.56 12.17L33.56 9.78L30.85 9.78L30.85 7.57L35.86 7.57ZM39.97 14.79L39.97 0.43L42.28 0.43L42.28 14.79L39.97 14.79ZM45.81 2.64L45.81 0.43L55.42 0.43L55.42 2.64L51.71 2.64L51.71 14.79L49.42 14.79L49.42 2.64L45.81 2.64ZM58.56 14.79L56.31 14.79L62.66-0.16L62.80-0.16L69.15 14.79L66.51 14.79L62.05 3.43L63.69 2.33L58.56 14.79ZM59.60 11.42L60.29 9.45L65.20 9.45L65.99 11.42L59.60 11.42ZM72.21 14.79L72.21 0.43L74.52 0.43L74.52 12.58L81.58 12.58L81.58 14.79L72.21 14.79ZM94.41 14.79L92.18 14.79L92.18-0.08L92.20-0.08L99.93 10.87L98.94 10.65L106.63-0.08L106.67-0.08L106.67 14.79L104.39 14.79L104.39 5.11L104.54 6.27L99.34 13.63L99.30 13.63L94.01 6.27L94.41 5.21L94.41 14.79ZM111.98 14.79L109.73 14.79L116.08-0.16L116.22-0.16L122.57 14.79L119.93 14.79L115.47 3.43L117.11 2.33L111.98 14.79ZM113.03 11.42L113.72 9.45L118.63 9.45L119.42 11.42L113.03 11.42ZM138.32 15.30L138.26 15.30L127.23 4.61L127.90 4.89L127.96 14.79L125.63 14.79L125.63-0.06L125.75-0.06L136.60 10.63L136.07 10.47L136.03 0.43L138.32 0.43L138.32 15.30ZM143.65 14.79L141.40 14.79L147.75-0.16L147.89-0.16L154.24 14.79L151.59 14.79L147.14 3.43L148.77 2.33L143.65 14.79ZM144.69 11.42L145.38 9.45L150.29 9.45L151.08 11.42L144.69 11.42ZM168.16 7.57L168.16 13.47Q167.89 13.75 167.35 14.00Q166.80 14.26 166.13 14.48Q165.46 14.69 164.75 14.82Q164.04 14.95 163.41 14.95L163.41 14.95Q161.68 14.95 160.29 14.42Q158.89 13.88 157.91 12.95Q156.92 12.01 156.39 10.73Q155.86 9.45 155.86 7.95L155.86 7.95Q155.86 6.07 156.45 4.64Q157.04 3.21 158.07 2.24Q159.09 1.26 160.42 0.77Q161.75 0.28 163.23 0.28L163.23 0.28Q164.54 0.28 165.65 0.57Q166.76 0.87 167.55 1.32L167.55 1.32L166.80 3.45Q166.43 3.23 165.84 3.03Q165.25 2.82 164.63 2.70Q164.02 2.58 163.53 2.58L163.53 2.58Q162.29 2.58 161.31 2.93Q160.33 3.27 159.64 3.94Q158.95 4.61 158.59 5.57Q158.22 6.53 158.22 7.75L158.22 7.75Q158.22 8.85 158.61 9.76Q158.99 10.67 159.68 11.32Q160.37 11.97 161.34 12.32Q162.31 12.66 163.47 12.66L163.47 12.66Q164.14 12.66 164.77 12.54Q165.40 12.42 165.86 12.17L165.86 12.17L165.86 9.78L163.15 9.78L163.15 7.57L168.16 7.57ZM172.27 14.79L172.27 0.43L181.80 0.43L181.80 2.64L174.58 2.64L174.58 6.47L181.01 6.47L181.01 8.68L174.58 8.68L174.58 12.58L182.07 12.58L182.07 14.79L172.27 14.79ZM188.09 14.79L185.86 14.79L185.86-0.08L185.88-0.08L193.61 10.87L192.63 10.65L200.32-0.08L200.36-0.08L200.36 14.79L198.07 14.79L198.07 5.11L198.23 6.27L193.02 13.63L192.98 13.63L187.70 6.27L188.09 5.21L188.09 14.79ZM204.92 14.79L204.92 0.43L214.44 0.43L214.44 2.64L207.23 2.64L207.23 6.47L213.66 6.47L213.66 8.68L207.23 8.68L207.23 12.58L214.72 12.58L214.72 14.79L204.92 14.79ZM231.19 15.30L231.13 15.30L220.11 4.61L220.78 4.89L220.84 14.79L218.51 14.79L218.51-0.06L218.63-0.06L229.48 10.63L228.95 10.47L228.91 0.43L231.19 0.43L231.19 15.30ZM234.75 2.64L234.75 0.43L244.35 0.43L244.35 2.64L240.64 2.64L240.64 14.79L238.36 14.79L238.36 2.64L234.75 2.64Z" transform="translate(0, 0)"></path></g></svg></g></svg></g></svg>